<mxfile host="Electron" agent="Mozilla/5.0 (Windows NT 10.0; Win64; x64) AppleWebKit/537.36 (KHTML, like Gecko) draw.io/26.1.1 Chrome/132.0.6834.210 Electron/34.3.3 Safari/537.36" version="26.1.1">
  <diagram name="Page-1" id="b0jybraxiHC6BJHkpqH3">
    <mxGraphModel dx="1381" dy="936" grid="1" gridSize="10" guides="1" tooltips="1" connect="1" arrows="1" fold="1" page="1" pageScale="1" pageWidth="850" pageHeight="1100" math="0" shadow="0">
      <root>
        <mxCell id="0" />
        <mxCell id="1" parent="0" />
        <mxCell id="9NK5kLJAUkMLLC9V7yCG-55" style="edgeStyle=orthogonalEdgeStyle;rounded=0;orthogonalLoop=1;jettySize=auto;html=1;exitX=1;exitY=0.5;exitDx=0;exitDy=0;entryX=0;entryY=0.5;entryDx=0;entryDy=0;sketch=1;curveFitting=1;jiggle=2;" parent="1" source="9NK5kLJAUkMLLC9V7yCG-1" edge="1">
          <mxGeometry relative="1" as="geometry">
            <Array as="points">
              <mxPoint x="230" y="447" />
              <mxPoint x="230" y="582" />
            </Array>
            <mxPoint x="289" y="582" as="targetPoint" />
          </mxGeometry>
        </mxCell>
        <mxCell id="1uV4PCM4H_xU2OuDQcSR-1" style="edgeStyle=orthogonalEdgeStyle;rounded=0;orthogonalLoop=1;jettySize=auto;html=1;exitX=1;exitY=0.5;exitDx=0;exitDy=0;entryX=0;entryY=0.5;entryDx=0;entryDy=0;sketch=1;curveFitting=1;jiggle=2;" edge="1" parent="1" source="9NK5kLJAUkMLLC9V7yCG-1" target="9NK5kLJAUkMLLC9V7yCG-11">
          <mxGeometry relative="1" as="geometry" />
        </mxCell>
        <mxCell id="9NK5kLJAUkMLLC9V7yCG-1" value="" style="rounded=0;whiteSpace=wrap;html=1;fillColor=none;sketch=1;curveFitting=1;jiggle=2;" parent="1" vertex="1">
          <mxGeometry x="60" y="402" width="120" height="90" as="geometry" />
        </mxCell>
        <mxCell id="9NK5kLJAUkMLLC9V7yCG-2" value="" style="endArrow=none;html=1;rounded=0;sketch=1;curveFitting=1;jiggle=2;" parent="1" edge="1">
          <mxGeometry width="50" height="50" relative="1" as="geometry">
            <mxPoint x="60" y="432" as="sourcePoint" />
            <mxPoint x="180" y="432" as="targetPoint" />
          </mxGeometry>
        </mxCell>
        <mxCell id="9NK5kLJAUkMLLC9V7yCG-3" value="&lt;font face=&quot;Comic Sans MS&quot;&gt;&lt;b&gt;crm_customers&lt;/b&gt;&lt;/font&gt;" style="text;html=1;align=center;verticalAlign=middle;whiteSpace=wrap;rounded=0;" parent="1" vertex="1">
          <mxGeometry x="90" y="402" width="60" height="30" as="geometry" />
        </mxCell>
        <mxCell id="9NK5kLJAUkMLLC9V7yCG-5" value="&lt;font face=&quot;Comic Sans MS&quot;&gt;cust_id (PK)&lt;/font&gt;" style="text;html=1;align=center;verticalAlign=middle;whiteSpace=wrap;rounded=0;" parent="1" vertex="1">
          <mxGeometry x="68" y="432" width="82" height="30" as="geometry" />
        </mxCell>
        <mxCell id="9NK5kLJAUkMLLC9V7yCG-6" value="&lt;font face=&quot;Comic Sans MS&quot;&gt;other fields&lt;/font&gt;" style="text;html=1;align=center;verticalAlign=middle;whiteSpace=wrap;rounded=0;" parent="1" vertex="1">
          <mxGeometry x="69" y="459" width="80" height="30" as="geometry" />
        </mxCell>
        <mxCell id="9NK5kLJAUkMLLC9V7yCG-7" value="" style="rounded=0;whiteSpace=wrap;html=1;fillColor=none;sketch=1;curveFitting=1;jiggle=2;" parent="1" vertex="1">
          <mxGeometry x="280" y="257" width="120" height="160" as="geometry" />
        </mxCell>
        <mxCell id="9NK5kLJAUkMLLC9V7yCG-8" value="" style="endArrow=none;html=1;rounded=0;sketch=1;curveFitting=1;jiggle=2;" parent="1" edge="1">
          <mxGeometry width="50" height="50" relative="1" as="geometry">
            <mxPoint x="280" y="287" as="sourcePoint" />
            <mxPoint x="400" y="287" as="targetPoint" />
          </mxGeometry>
        </mxCell>
        <mxCell id="9NK5kLJAUkMLLC9V7yCG-9" value="&lt;font face=&quot;Comic Sans MS&quot;&gt;&lt;b&gt;crm_orders_2023&lt;/b&gt;&lt;/font&gt;" style="text;html=1;align=center;verticalAlign=middle;whiteSpace=wrap;rounded=0;" parent="1" vertex="1">
          <mxGeometry x="310" y="257" width="60" height="30" as="geometry" />
        </mxCell>
        <mxCell id="9NK5kLJAUkMLLC9V7yCG-10" value="&lt;font face=&quot;Comic Sans MS&quot;&gt;ord_id (PK)&lt;/font&gt;" style="text;html=1;align=center;verticalAlign=middle;whiteSpace=wrap;rounded=0;" parent="1" vertex="1">
          <mxGeometry x="288" y="287" width="82" height="30" as="geometry" />
        </mxCell>
        <mxCell id="9NK5kLJAUkMLLC9V7yCG-11" value="&lt;font face=&quot;Comic Sans MS&quot;&gt;cust_id (FK)&lt;/font&gt;" style="text;html=1;align=center;verticalAlign=middle;whiteSpace=wrap;rounded=0;" parent="1" vertex="1">
          <mxGeometry x="289" y="314" width="80" height="30" as="geometry" />
        </mxCell>
        <mxCell id="9NK5kLJAUkMLLC9V7yCG-34" value="&lt;font face=&quot;Comic Sans MS&quot;&gt;other columns&lt;/font&gt;" style="text;html=1;align=center;verticalAlign=middle;whiteSpace=wrap;rounded=0;" parent="1" vertex="1">
          <mxGeometry x="288" y="367" width="90" height="30" as="geometry" />
        </mxCell>
        <mxCell id="9NK5kLJAUkMLLC9V7yCG-61" value="" style="rounded=0;whiteSpace=wrap;html=1;fillColor=none;sketch=1;curveFitting=1;jiggle=2;" parent="1" vertex="1">
          <mxGeometry x="605" y="310" width="120" height="120" as="geometry" />
        </mxCell>
        <mxCell id="9NK5kLJAUkMLLC9V7yCG-62" value="" style="endArrow=none;html=1;rounded=0;sketch=1;curveFitting=1;jiggle=2;" parent="1" edge="1">
          <mxGeometry width="50" height="50" relative="1" as="geometry">
            <mxPoint x="605" y="340" as="sourcePoint" />
            <mxPoint x="725" y="340" as="targetPoint" />
          </mxGeometry>
        </mxCell>
        <mxCell id="9NK5kLJAUkMLLC9V7yCG-63" value="&lt;font face=&quot;Comic Sans MS&quot;&gt;&lt;b&gt;erp_products&lt;/b&gt;&lt;/font&gt;" style="text;html=1;align=center;verticalAlign=middle;whiteSpace=wrap;rounded=0;" parent="1" vertex="1">
          <mxGeometry x="635" y="310" width="60" height="30" as="geometry" />
        </mxCell>
        <mxCell id="9NK5kLJAUkMLLC9V7yCG-64" value="&lt;font face=&quot;Comic Sans MS&quot;&gt;prd_id (PK)&lt;/font&gt;" style="text;html=1;align=center;verticalAlign=middle;whiteSpace=wrap;rounded=0;" parent="1" vertex="1">
          <mxGeometry x="613" y="340" width="82" height="30" as="geometry" />
        </mxCell>
        <mxCell id="9NK5kLJAUkMLLC9V7yCG-75" style="edgeStyle=orthogonalEdgeStyle;rounded=0;orthogonalLoop=1;jettySize=auto;html=1;exitX=0;exitY=0.5;exitDx=0;exitDy=0;entryX=0;entryY=0.5;entryDx=0;entryDy=0;sketch=1;curveFitting=1;jiggle=2;" parent="1" source="9NK5kLJAUkMLLC9V7yCG-65" target="9NK5kLJAUkMLLC9V7yCG-67" edge="1">
          <mxGeometry relative="1" as="geometry">
            <Array as="points">
              <mxPoint x="565" y="382" />
              <mxPoint x="565" y="525" />
            </Array>
          </mxGeometry>
        </mxCell>
        <mxCell id="9NK5kLJAUkMLLC9V7yCG-65" value="&lt;font face=&quot;Comic Sans MS&quot;&gt;cat_id (FK)&lt;/font&gt;" style="text;html=1;align=center;verticalAlign=middle;whiteSpace=wrap;rounded=0;" parent="1" vertex="1">
          <mxGeometry x="614" y="367" width="80" height="30" as="geometry" />
        </mxCell>
        <mxCell id="9NK5kLJAUkMLLC9V7yCG-66" value="&lt;font face=&quot;Comic Sans MS&quot;&gt;other columns&lt;/font&gt;" style="text;html=1;align=center;verticalAlign=middle;whiteSpace=wrap;rounded=0;" parent="1" vertex="1">
          <mxGeometry x="614" y="392" width="90" height="30" as="geometry" />
        </mxCell>
        <mxCell id="9NK5kLJAUkMLLC9V7yCG-67" value="" style="rounded=0;whiteSpace=wrap;html=1;fillColor=none;sketch=1;curveFitting=1;jiggle=2;" parent="1" vertex="1">
          <mxGeometry x="605" y="470" width="120" height="110" as="geometry" />
        </mxCell>
        <mxCell id="9NK5kLJAUkMLLC9V7yCG-68" value="" style="endArrow=none;html=1;rounded=0;sketch=1;curveFitting=1;jiggle=2;" parent="1" edge="1">
          <mxGeometry width="50" height="50" relative="1" as="geometry">
            <mxPoint x="605" y="500" as="sourcePoint" />
            <mxPoint x="725" y="500" as="targetPoint" />
          </mxGeometry>
        </mxCell>
        <mxCell id="9NK5kLJAUkMLLC9V7yCG-69" value="&lt;font face=&quot;Comic Sans MS&quot;&gt;&lt;b&gt;erp_categories&lt;/b&gt;&lt;/font&gt;" style="text;html=1;align=center;verticalAlign=middle;whiteSpace=wrap;rounded=0;" parent="1" vertex="1">
          <mxGeometry x="635" y="470" width="60" height="30" as="geometry" />
        </mxCell>
        <mxCell id="9NK5kLJAUkMLLC9V7yCG-70" value="&lt;font face=&quot;Comic Sans MS&quot;&gt;cat_id (PK)&lt;/font&gt;" style="text;html=1;align=center;verticalAlign=middle;whiteSpace=wrap;rounded=0;" parent="1" vertex="1">
          <mxGeometry x="613" y="505" width="82" height="30" as="geometry" />
        </mxCell>
        <mxCell id="9NK5kLJAUkMLLC9V7yCG-72" value="&lt;font face=&quot;Comic Sans MS&quot;&gt;other columns&lt;/font&gt;" style="text;html=1;align=center;verticalAlign=middle;whiteSpace=wrap;rounded=0;" parent="1" vertex="1">
          <mxGeometry x="614" y="534" width="90" height="30" as="geometry" />
        </mxCell>
        <mxCell id="9NK5kLJAUkMLLC9V7yCG-78" value="&lt;font face=&quot;Comic Sans MS&quot;&gt;&lt;b&gt;customers&lt;/b&gt;&lt;/font&gt;" style="rounded=0;whiteSpace=wrap;html=1;fillColor=#dae8fc;strokeColor=#6c8ebf;" parent="1" vertex="1">
          <mxGeometry x="75" y="485" width="90" height="25" as="geometry" />
        </mxCell>
        <mxCell id="9NK5kLJAUkMLLC9V7yCG-79" value="&lt;font face=&quot;Comic Sans MS&quot;&gt;&lt;b&gt;orders&lt;/b&gt;&lt;/font&gt;" style="rounded=0;whiteSpace=wrap;html=1;fillColor=#d5e8d4;strokeColor=#82b366;" parent="1" vertex="1">
          <mxGeometry x="295" y="407" width="90" height="28" as="geometry" />
        </mxCell>
        <mxCell id="9NK5kLJAUkMLLC9V7yCG-83" value="&lt;font face=&quot;Comic Sans MS&quot;&gt;&lt;b&gt;products&lt;/b&gt;&lt;/font&gt;" style="rounded=0;whiteSpace=wrap;html=1;fillColor=#f8cecc;strokeColor=#b85450;" parent="1" vertex="1">
          <mxGeometry x="620" y="416" width="90" height="28" as="geometry" />
        </mxCell>
        <mxCell id="9NK5kLJAUkMLLC9V7yCG-84" value="&lt;font face=&quot;Comic Sans MS&quot;&gt;&lt;b&gt;categories&lt;/b&gt;&lt;/font&gt;" style="rounded=0;whiteSpace=wrap;html=1;fillColor=#ffe6cc;strokeColor=#d79b00;" parent="1" vertex="1">
          <mxGeometry x="620" y="564" width="90" height="28" as="geometry" />
        </mxCell>
        <mxCell id="9NK5kLJAUkMLLC9V7yCG-85" value="" style="rounded=0;whiteSpace=wrap;html=1;fillColor=none;strokeColor=#6c8ebf;sketch=1;curveFitting=1;jiggle=2;" parent="1" vertex="1">
          <mxGeometry x="20" y="200" width="440" height="511" as="geometry" />
        </mxCell>
        <mxCell id="9NK5kLJAUkMLLC9V7yCG-86" value="" style="rounded=0;whiteSpace=wrap;html=1;fillColor=none;strokeColor=#d79b00;sketch=1;curveFitting=1;jiggle=2;" parent="1" vertex="1">
          <mxGeometry x="481" y="200" width="340" height="511" as="geometry" />
        </mxCell>
        <mxCell id="9NK5kLJAUkMLLC9V7yCG-87" value="&lt;b&gt;&lt;font style=&quot;font-size: 18px;&quot; face=&quot;Comic Sans MS&quot;&gt;CRM&lt;/font&gt;&lt;/b&gt;" style="rounded=0;whiteSpace=wrap;html=1;fillColor=default;strokeColor=#6c8ebf;sketch=1;curveFitting=1;jiggle=2;" parent="1" vertex="1">
          <mxGeometry x="190" y="170" width="120" height="50" as="geometry" />
        </mxCell>
        <mxCell id="9NK5kLJAUkMLLC9V7yCG-88" value="&lt;b&gt;&lt;font style=&quot;font-size: 18px;&quot; face=&quot;Comic Sans MS&quot;&gt;ERP&lt;/font&gt;&lt;/b&gt;" style="rounded=0;whiteSpace=wrap;html=1;fillColor=default;strokeColor=#d6b656;sketch=1;curveFitting=1;jiggle=2;" parent="1" vertex="1">
          <mxGeometry x="605" y="170" width="120" height="50" as="geometry" />
        </mxCell>
        <mxCell id="1uV4PCM4H_xU2OuDQcSR-11" style="edgeStyle=orthogonalEdgeStyle;rounded=0;orthogonalLoop=1;jettySize=auto;html=1;entryX=0;entryY=0.5;entryDx=0;entryDy=0;sketch=1;curveFitting=1;jiggle=2;" edge="1" parent="1" source="1uV4PCM4H_xU2OuDQcSR-2" target="9NK5kLJAUkMLLC9V7yCG-64">
          <mxGeometry relative="1" as="geometry" />
        </mxCell>
        <mxCell id="1uV4PCM4H_xU2OuDQcSR-2" value="&lt;font face=&quot;Comic Sans MS&quot;&gt;prd_id (FK)&lt;/font&gt;" style="text;html=1;align=center;verticalAlign=middle;whiteSpace=wrap;rounded=0;" vertex="1" parent="1">
          <mxGeometry x="288" y="340" width="80" height="30" as="geometry" />
        </mxCell>
        <mxCell id="1uV4PCM4H_xU2OuDQcSR-3" value="" style="rounded=0;whiteSpace=wrap;html=1;fillColor=none;sketch=1;curveFitting=1;jiggle=2;" vertex="1" parent="1">
          <mxGeometry x="283" y="510" width="120" height="160" as="geometry" />
        </mxCell>
        <mxCell id="1uV4PCM4H_xU2OuDQcSR-4" value="" style="endArrow=none;html=1;rounded=0;sketch=1;curveFitting=1;jiggle=2;" edge="1" parent="1">
          <mxGeometry width="50" height="50" relative="1" as="geometry">
            <mxPoint x="283" y="540" as="sourcePoint" />
            <mxPoint x="403" y="540" as="targetPoint" />
          </mxGeometry>
        </mxCell>
        <mxCell id="1uV4PCM4H_xU2OuDQcSR-5" value="&lt;font face=&quot;Comic Sans MS&quot;&gt;&lt;b&gt;crm_orders_2023&lt;/b&gt;&lt;/font&gt;" style="text;html=1;align=center;verticalAlign=middle;whiteSpace=wrap;rounded=0;" vertex="1" parent="1">
          <mxGeometry x="313" y="510" width="60" height="30" as="geometry" />
        </mxCell>
        <mxCell id="1uV4PCM4H_xU2OuDQcSR-6" value="&lt;font face=&quot;Comic Sans MS&quot;&gt;ord_id (PK)&lt;/font&gt;" style="text;html=1;align=center;verticalAlign=middle;whiteSpace=wrap;rounded=0;" vertex="1" parent="1">
          <mxGeometry x="291" y="540" width="82" height="30" as="geometry" />
        </mxCell>
        <mxCell id="1uV4PCM4H_xU2OuDQcSR-7" value="&lt;font face=&quot;Comic Sans MS&quot;&gt;cust_id (FK)&lt;/font&gt;" style="text;html=1;align=center;verticalAlign=middle;whiteSpace=wrap;rounded=0;" vertex="1" parent="1">
          <mxGeometry x="292" y="567" width="80" height="30" as="geometry" />
        </mxCell>
        <mxCell id="1uV4PCM4H_xU2OuDQcSR-8" value="&lt;font face=&quot;Comic Sans MS&quot;&gt;other columns&lt;/font&gt;" style="text;html=1;align=center;verticalAlign=middle;whiteSpace=wrap;rounded=0;" vertex="1" parent="1">
          <mxGeometry x="291" y="620" width="90" height="30" as="geometry" />
        </mxCell>
        <mxCell id="1uV4PCM4H_xU2OuDQcSR-12" style="edgeStyle=orthogonalEdgeStyle;rounded=0;orthogonalLoop=1;jettySize=auto;html=1;entryX=0;entryY=0.5;entryDx=0;entryDy=0;sketch=1;curveFitting=1;jiggle=2;" edge="1" parent="1" source="1uV4PCM4H_xU2OuDQcSR-9" target="9NK5kLJAUkMLLC9V7yCG-64">
          <mxGeometry relative="1" as="geometry">
            <Array as="points">
              <mxPoint x="492" y="608" />
              <mxPoint x="492" y="355" />
            </Array>
          </mxGeometry>
        </mxCell>
        <mxCell id="1uV4PCM4H_xU2OuDQcSR-9" value="&lt;font face=&quot;Comic Sans MS&quot;&gt;prd_id (FK)&lt;/font&gt;" style="text;html=1;align=center;verticalAlign=middle;whiteSpace=wrap;rounded=0;" vertex="1" parent="1">
          <mxGeometry x="291" y="593" width="80" height="30" as="geometry" />
        </mxCell>
        <mxCell id="1uV4PCM4H_xU2OuDQcSR-10" value="&lt;font face=&quot;Comic Sans MS&quot;&gt;&lt;b&gt;orders&lt;/b&gt;&lt;/font&gt;" style="rounded=0;whiteSpace=wrap;html=1;fillColor=#d5e8d4;strokeColor=#82b366;" vertex="1" parent="1">
          <mxGeometry x="300" y="660" width="90" height="28" as="geometry" />
        </mxCell>
      </root>
    </mxGraphModel>
  </diagram>
</mxfile>
